<svg width="21" height="20" viewBox="0 0 21 20" fill="none" xmlns="http://www.w3.org/2000/svg">
<path d="M10.5 9C12.7091 9 14.5 7.20914 14.5 5C14.5 2.79086 12.7091 1 10.5 1C8.29086 1 6.5 2.79086 6.5 5C6.5 7.20914 8.29086 9 10.5 9Z" stroke="#254CE3" stroke-width="2" stroke-linecap="round" stroke-linejoin="round"/>
<path d="M5 19C7.20914 19 9 17.2091 9 15C9 12.7909 7.20914 11 5 11C2.79086 11 1 12.7909 1 15C1 17.2091 2.79086 19 5 19Z" stroke="#5DD3F0" stroke-width="2" stroke-linecap="round" stroke-linejoin="round"/>
<path d="M16 19C18.2091 19 20 17.2091 20 15C20 12.7909 18.2091 11 16 11C13.7909 11 12 12.7909 12 15C12 17.2091 13.7909 19 16 19Z" stroke="#254CE3" stroke-width="2" stroke-linecap="round" stroke-linejoin="round"/>
</svg>
