<svg width="14" height="22" viewBox="0 0 14 22" fill="none" xmlns="http://www.w3.org/2000/svg">
<path d="M8 18H6C5.44772 18 5 18.4477 5 19V20C5 20.5523 5.44772 21 6 21H8C8.55228 21 9 20.5523 9 20V19C9 18.4477 8.55228 18 8 18Z" stroke="#5DD3F0" stroke-width="2" stroke-linecap="round" stroke-linejoin="round"/>
<path d="M7 15C10.314 15 13 10.314 13 7C13 5.4087 12.3679 3.88258 11.2426 2.75736C10.1174 1.63214 8.5913 1 7 1C5.4087 1 3.88258 1.63214 2.75736 2.75736C1.63214 3.88258 1 5.4087 1 7C1 10.314 3.686 15 7 15Z" stroke="white" stroke-width="2" stroke-linecap="round" stroke-linejoin="round"/>
<path d="M7 15C8.10457 15 9 11.866 9 8C9 4.13401 8.10457 1 7 1C5.89543 1 5 4.13401 5 8C5 11.866 5.89543 15 7 15Z" stroke="white" stroke-width="2" stroke-linecap="round" stroke-linejoin="round"/>
</svg>
