<svg width="92" height="27" viewBox="0 0 92 27" fill="none" xmlns="http://www.w3.org/2000/svg">
<path d="M8.90906 26.3296C7.06815 26.3296 5.48861 25.9508 4.17043 25.1932C2.85982 24.4356 1.85224 23.3826 1.1477 22.0341C0.443154 20.6781 0.0908813 19.1099 0.0908813 17.3296C0.0908813 15.5417 0.443154 13.9735 1.1477 12.625C1.85982 11.269 2.87118 10.2121 4.18179 9.45457C5.49997 8.69699 7.07194 8.3182 8.8977 8.3182C10.5113 8.3182 11.9166 8.60987 13.1136 9.1932C14.3182 9.77654 15.2575 10.6023 15.9318 11.6705C16.6136 12.7311 16.9735 13.9773 17.0113 15.4091H11.8182C11.7121 14.5152 11.4091 13.8144 10.9091 13.3068C10.4166 12.7993 9.7727 12.5455 8.97725 12.5455C8.33331 12.5455 7.76891 12.7273 7.28406 13.0909C6.79921 13.447 6.42043 13.9773 6.1477 14.6818C5.88255 15.3788 5.74997 16.2424 5.74997 17.2728C5.74997 18.3031 5.88255 19.1743 6.1477 19.8864C6.42043 20.5909 6.79921 21.125 7.28406 21.4887C7.76891 21.8447 8.33331 22.0228 8.97725 22.0228C9.4924 22.0228 9.94694 21.9129 10.3409 21.6932C10.7424 21.4735 11.0719 21.1515 11.3295 20.7273C11.5871 20.2955 11.75 19.7727 11.8182 19.1591H17.0113C16.9583 20.5985 16.5985 21.8561 15.9318 22.9318C15.2727 24.0076 14.3447 24.8447 13.1477 25.4432C11.9583 26.0341 10.5454 26.3296 8.90906 26.3296Z" fill="#1B2244"/>
<path d="M25.4119 2.72729V26H19.8551V2.72729H25.4119Z" fill="#1B2244"/>
<path d="M37.1079 26.3296C35.2822 26.3296 33.7064 25.9697 32.3807 25.25C31.0625 24.5228 30.0473 23.4887 29.3352 22.1478C28.6307 20.7993 28.2784 19.197 28.2784 17.3409C28.2784 15.5379 28.6344 13.9621 29.3466 12.6137C30.0587 11.2576 31.0625 10.2046 32.3579 9.45457C33.6534 8.69699 35.1799 8.3182 36.9375 8.3182C38.1799 8.3182 39.3163 8.51139 40.3466 8.89775C41.3769 9.28411 42.267 9.85608 43.017 10.6137C43.767 11.3712 44.3504 12.3068 44.767 13.4205C45.1837 14.5265 45.392 15.7955 45.392 17.2273V18.6137H30.2216V15.3864H40.2216C40.214 14.7955 40.0738 14.269 39.8011 13.8068C39.5284 13.3447 39.1534 12.9849 38.6761 12.7273C38.2064 12.4621 37.6647 12.3296 37.0511 12.3296C36.4299 12.3296 35.8731 12.4697 35.3807 12.75C34.8882 13.0228 34.4981 13.3978 34.2102 13.875C33.9223 14.3447 33.7708 14.8788 33.7557 15.4773V18.7614C33.7557 19.4735 33.8958 20.0985 34.1761 20.6364C34.4564 21.1667 34.8541 21.5796 35.3693 21.875C35.8844 22.1705 36.4981 22.3182 37.2102 22.3182C37.7026 22.3182 38.1496 22.25 38.5511 22.1137C38.9526 21.9773 39.2973 21.7765 39.5852 21.5114C39.8731 21.2462 40.089 20.9205 40.2329 20.5341L45.3352 20.6818C45.1231 21.8258 44.6572 22.822 43.9375 23.6705C43.2254 24.5114 42.2897 25.1667 41.1307 25.6364C39.9716 26.0985 38.6307 26.3296 37.1079 26.3296Z" fill="#1B2244"/>
<path d="M64.6932 8.54548L58.7045 26H52.3409L46.3636 8.54548H52.2159L55.4318 20.5682H55.6136L58.8409 8.54548H64.6932Z" fill="#1B2244"/>
<path d="M74.4091 26.3296C72.5757 26.3296 71 25.9546 69.6818 25.2046C68.3712 24.447 67.3598 23.394 66.6477 22.0455C65.9432 20.6894 65.5909 19.1174 65.5909 17.3296C65.5909 15.5341 65.9432 13.9621 66.6477 12.6137C67.3598 11.2576 68.3712 10.2046 69.6818 9.45457C71 8.69699 72.5757 8.3182 74.4091 8.3182C76.2424 8.3182 77.8144 8.69699 79.125 9.45457C80.4432 10.2046 81.4545 11.2576 82.1591 12.6137C82.8712 13.9621 83.2272 15.5341 83.2272 17.3296C83.2272 19.1174 82.8712 20.6894 82.1591 22.0455C81.4545 23.394 80.4432 24.447 79.125 25.2046C77.8144 25.9546 76.2424 26.3296 74.4091 26.3296ZM74.4432 22.1364C75.1098 22.1364 75.6742 21.9318 76.1363 21.5228C76.5985 21.1137 76.9507 20.5455 77.1932 19.8182C77.4432 19.0909 77.5682 18.25 77.5682 17.2955C77.5682 16.3258 77.4432 15.4773 77.1932 14.75C76.9507 14.0228 76.5985 13.4546 76.1363 13.0455C75.6742 12.6364 75.1098 12.4318 74.4432 12.4318C73.7538 12.4318 73.1704 12.6364 72.6932 13.0455C72.2235 13.4546 71.8636 14.0228 71.6136 14.75C71.3712 15.4773 71.25 16.3258 71.25 17.2955C71.25 18.25 71.3712 19.0909 71.6136 19.8182C71.8636 20.5455 72.2235 21.1137 72.6932 21.5228C73.1704 21.9318 73.7538 22.1364 74.4432 22.1364Z" fill="#1B2244"/>
<circle cx="87.5" cy="4.5" r="4.5" fill="#254CE3"/>
</svg>
